<svg width="22" height="22" viewBox="0 0 22 22" fill="none" xmlns="http://www.w3.org/2000/svg">
<path d="M20.2882 8.56617H1.91697C1.0466 8.56617 0.673576 7.61807 1.35745 7.16734L10.5431 1.15237C10.7127 1.05261 10.9059 1 11.1026 1C11.2994 1 11.4926 1.05261 11.6621 1.15237L20.8478 7.16734C21.5316 7.61807 21.1586 8.56617 20.2882 8.56617Z" stroke="#1A90E3" stroke-width="1.5" stroke-linecap="round" stroke-linejoin="round"/>
<path d="M20.4282 17.1143H1.77713C1.34793 17.1143 1 17.4623 1 17.8914V20.2228C1 20.6519 1.34793 20.9999 1.77713 20.9999H20.4282C20.8573 20.9999 21.2053 20.6519 21.2053 20.2228V17.8914C21.2053 17.4623 20.8573 17.1143 20.4282 17.1143Z" stroke="#1A90E3" stroke-width="1.5" stroke-linecap="round" stroke-linejoin="round"/>
<path d="M3.33154 8.56641V17.1148" stroke="#1A90E3" stroke-width="1.5" stroke-linecap="round" stroke-linejoin="round"/>
<path d="M8.51221 8.56641V17.1148" stroke="#1A90E3" stroke-width="1.5" stroke-linecap="round" stroke-linejoin="round"/>
<path d="M13.6931 8.56641V17.1148" stroke="#1A90E3" stroke-width="1.5" stroke-linecap="round" stroke-linejoin="round"/>
<path d="M18.874 8.56641V17.1148" stroke="#1A90E3" stroke-width="1.5" stroke-linecap="round" stroke-linejoin="round"/>
</svg>
