<svg width="30" height="30" viewBox="0 0 30 30" fill="none" xmlns="http://www.w3.org/2000/svg">
<path d="M29.1231 5.52308C28.6154 4.93846 27.8769 4.61538 27.1077 4.61538H7.43077L7.29231 3.63077C7 1.55385 5.2 0 3.10769 0H1.15385C0.523077 0 0 0.523077 0 1.15385C0 1.78462 0.523077 2.30769 1.15385 2.30769H3.10769C4.06154 2.30769 4.87692 3.01538 5.01539 3.95385L7.33846 20.2154C7.49231 21.2923 8.06154 22.2308 8.86154 22.8769C8.15385 23.6308 7.70769 24.6462 7.70769 25.7692C7.70769 28.1077 9.6 30 11.9385 30C14.2769 30 16.1692 28.1077 16.1692 25.7692C16.1692 25.0769 15.9846 24.4308 15.6923 23.8462H20.5077C20.2154 24.4308 20.0308 25.0769 20.0308 25.7692C20.0308 28.1077 21.9231 30 24.2615 30C26.6 30 28.4923 28.1077 28.4923 25.7692C28.4923 23.4308 26.6 21.5385 24.2615 21.5385H11.5077C10.5538 21.5385 9.73846 20.8308 9.6 19.8923L9.50769 19.2308H25.9385C27.2923 19.2308 28.4462 18.2154 28.6154 16.8769L29.7692 7.64615C29.8615 6.87692 29.6308 6.10769 29.1231 5.52308ZM13.8462 25.7692C13.8462 26.8308 12.9846 27.6923 11.9231 27.6923C10.8615 27.6923 10 26.8308 10 25.7692C10 24.7077 10.8615 23.8462 11.9231 23.8462C12.9846 23.8462 13.8462 24.7077 13.8462 25.7692ZM26.1538 25.7692C26.1538 26.8308 25.2923 27.6923 24.2308 27.6923C23.1692 27.6923 22.3077 26.8308 22.3077 25.7692C22.3077 24.7077 23.1692 23.8462 24.2308 23.8462C25.2923 23.8462 26.1538 24.7077 26.1538 25.7692ZM26.3385 16.5846C26.3077 16.7692 26.1538 16.9231 25.9538 16.9231H9.18462L7.75385 6.92308H27.0923C27.2462 6.92308 27.3385 7 27.3846 7.04615C27.4308 7.09231 27.4923 7.2 27.4769 7.35385L26.3231 16.5846H26.3385Z" fill="#1A90E3"/>
<path d="M8 18L6.5 6H28L28.5 7L26.5 18H8Z" fill="#1A90E3"/>
<circle cx="12" cy="26" r="3" fill="#1A90E3"/>
<circle cx="24" cy="26" r="3" fill="#1A90E3"/>
</svg>
