<svg width="22" height="22" viewBox="0 0 22 22" fill="none" xmlns="http://www.w3.org/2000/svg">
<path d="M21.3569 4.05026C20.9846 3.62154 20.4431 3.38462 19.879 3.38462H5.44923L5.34769 2.66256C5.13333 1.13949 3.81333 0 2.27897 0H0.846154C0.38359 0 0 0.38359 0 0.846154C0 1.30872 0.38359 1.69231 0.846154 1.69231H2.27897C2.97846 1.69231 3.57641 2.21128 3.67795 2.89949L5.38154 14.8246C5.49436 15.6144 5.9118 16.3026 6.49846 16.7764C5.97949 17.3292 5.65231 18.0738 5.65231 18.8974C5.65231 20.6123 7.04 22 8.75487 22C10.4697 22 11.8574 20.6123 11.8574 18.8974C11.8574 18.3897 11.7221 17.9159 11.5077 17.4872H15.039C14.8246 17.9159 14.6892 18.3897 14.6892 18.8974C14.6892 20.6123 16.0769 22 17.7918 22C19.5067 22 20.8944 20.6123 20.8944 18.8974C20.8944 17.1826 19.5067 15.7949 17.7918 15.7949H8.43897C7.73949 15.7949 7.14154 15.2759 7.04 14.5877L6.97231 14.1026H19.0215C20.0144 14.1026 20.8605 13.358 20.9846 12.3764L21.8308 5.60718C21.8985 5.04308 21.7292 4.47897 21.3569 4.05026ZM10.1538 18.8974C10.1538 19.6759 9.52205 20.3077 8.74359 20.3077C7.96513 20.3077 7.33333 19.6759 7.33333 18.8974C7.33333 18.119 7.96513 17.4872 8.74359 17.4872C9.52205 17.4872 10.1538 18.119 10.1538 18.8974ZM19.1795 18.8974C19.1795 19.6759 18.5477 20.3077 17.7692 20.3077C16.9908 20.3077 16.359 19.6759 16.359 18.8974C16.359 18.119 16.9908 17.4872 17.7692 17.4872C18.5477 17.4872 19.1795 18.119 19.1795 18.8974ZM19.3149 12.1621C19.2923 12.2974 19.1795 12.4103 19.0328 12.4103H6.73538L5.68615 5.07692H19.8677C19.9805 5.07692 20.0482 5.13333 20.0821 5.16718C20.1159 5.20103 20.161 5.28 20.1497 5.39282L19.3036 12.1621H19.3149Z" fill="#1A90E3"/>
</svg>
