<svg width="27" height="26" viewBox="0 0 27 26" fill="none" xmlns="http://www.w3.org/2000/svg">
<path d="M25.74 5.59917C25.3 5.0925 24.66 4.8125 23.9933 4.8125H6.94L6.82 3.95917C6.56667 2.15917 5.00667 0.8125 3.19333 0.8125H1.5C0.953333 0.8125 0.5 1.26583 0.5 1.8125C0.5 2.35917 0.953333 2.8125 1.5 2.8125H3.19333C4.02 2.8125 4.72667 3.42583 4.84667 4.23917L6.86 18.3325C6.99333 19.2658 7.48667 20.0792 8.18 20.6392C7.56667 21.2925 7.18 22.1725 7.18 23.1458C7.18 25.1725 8.82 26.8125 10.8467 26.8125C12.8733 26.8125 14.5133 25.1725 14.5133 23.1458C14.5133 22.5458 14.3533 21.9858 14.1 21.4792H18.2733C18.02 21.9858 17.86 22.5458 17.86 23.1458C17.86 25.1725 19.5 26.8125 21.5267 26.8125C23.5533 26.8125 25.1933 25.1725 25.1933 23.1458C25.1933 21.1192 23.5533 19.4792 21.5267 19.4792H10.4733C9.64667 19.4792 8.94 18.8658 8.82 18.0525L8.74 17.4792H22.98C24.1533 17.4792 25.1533 16.5992 25.3 15.4392L26.3 7.43917C26.38 6.7725 26.18 6.10583 25.74 5.59917ZM12.5 23.1458C12.5 24.0658 11.7533 24.8125 10.8333 24.8125C9.91333 24.8125 9.16667 24.0658 9.16667 23.1458C9.16667 22.2258 9.91333 21.4792 10.8333 21.4792C11.7533 21.4792 12.5 22.2258 12.5 23.1458ZM23.1667 23.1458C23.1667 24.0658 22.42 24.8125 21.5 24.8125C20.58 24.8125 19.8333 24.0658 19.8333 23.1458C19.8333 22.2258 20.58 21.4792 21.5 21.4792C22.42 21.4792 23.1667 22.2258 23.1667 23.1458ZM23.3267 15.1858C23.3 15.3458 23.1667 15.4792 22.9933 15.4792H8.46L7.22 6.8125H23.98C24.1133 6.8125 24.1933 6.87917 24.2333 6.91917C24.2733 6.95917 24.3267 7.0525 24.3133 7.18583L23.3133 15.1858H23.3267Z" fill="#5B5B5B"/>
</svg>
