<svg width="30" height="30" viewBox="0 0 30 30" fill="none" xmlns="http://www.w3.org/2000/svg">
<rect x="1" y="18" width="11" height="11" rx="2" fill="#1A90E3"/>
<rect x="18" y="1" width="11" height="11" rx="2" fill="#1A90E3"/>
<circle cx="23.5" cy="23.5" r="5.5" fill="#1A90E3"/>
<circle cx="6.5" cy="6.5" r="5.5" fill="#1A90E3"/>
<path d="M24.7677 13.256H21.977C18.6002 13.256 16.7444 11.4002 16.7444 8.02337V5.23263C16.7444 1.85584 18.6002 0 21.977 0H24.7677C28.1445 0 30.0004 1.85584 30.0004 5.23263V8.02337C30.0004 11.4002 28.1445 13.256 24.7677 13.256ZM21.977 2.09305C19.7723 2.09305 18.8374 3.02795 18.8374 5.23263V8.02337C18.8374 10.228 19.7723 11.1629 21.977 11.1629H24.7677C26.9724 11.1629 27.9073 10.228 27.9073 8.02337V5.23263C27.9073 3.02795 26.9724 2.09305 24.7677 2.09305H21.977Z" fill="#1A90E3"/>
<path d="M8.02337 30.0001H5.23263C1.85584 30.0001 0 28.1443 0 24.7675V21.9768C0 18.6 1.85584 16.7441 5.23263 16.7441H8.02337C11.4002 16.7441 13.256 18.6 13.256 21.9768V24.7675C13.256 28.1443 11.4002 30.0001 8.02337 30.0001ZM5.23263 18.8372C3.02795 18.8372 2.09305 19.7721 2.09305 21.9768V24.7675C2.09305 26.9722 3.02795 27.9071 5.23263 27.9071H8.02337C10.228 27.9071 11.1629 26.9722 11.1629 24.7675V21.9768C11.1629 19.7721 10.228 18.8372 8.02337 18.8372H5.23263Z" fill="#1A90E3"/>
<path d="M6.628 13.256C2.97213 13.256 0 10.2839 0 6.628C0 2.97213 2.97213 0 6.628 0C10.2839 0 13.256 2.97213 13.256 6.628C13.256 10.2839 10.2839 13.256 6.628 13.256ZM6.628 2.09305C4.13029 2.09305 2.09305 4.13029 2.09305 6.628C2.09305 9.12571 4.13029 11.1629 6.628 11.1629C9.12571 11.1629 11.1629 9.12571 11.1629 6.628C11.1629 4.13029 9.12571 2.09305 6.628 2.09305Z" fill="#1A90E3"/>
<path d="M23.3724 30.0001C19.7165 30.0001 16.7444 27.028 16.7444 23.3721C16.7444 19.7163 19.7165 16.7441 23.3724 16.7441C27.0282 16.7441 30.0004 19.7163 30.0004 23.3721C30.0004 27.028 27.0282 30.0001 23.3724 30.0001ZM23.3724 18.8372C20.8747 18.8372 18.8374 20.8744 18.8374 23.3721C18.8374 25.8698 20.8747 27.9071 23.3724 27.9071C25.8701 27.9071 27.9073 25.8698 27.9073 23.3721C27.9073 20.8744 25.8701 18.8372 23.3724 18.8372Z" fill="#1A90E3"/>
</svg>
