<svg width="24" height="24" viewBox="0 0 24 24" fill="none" xmlns="http://www.w3.org/2000/svg">
<path d="M19.814 10.6047H17.5814C14.88 10.6047 13.3954 9.12 13.3954 6.4186V4.18605C13.3954 1.48465 14.88 0 17.5814 0H19.814C22.5154 0 24 1.48465 24 4.18605V6.4186C24 9.12 22.5154 10.6047 19.814 10.6047ZM17.5814 1.67442C15.8177 1.67442 15.0698 2.42233 15.0698 4.18605V6.4186C15.0698 8.18233 15.8177 8.93023 17.5814 8.93023H19.814C21.5777 8.93023 22.3256 8.18233 22.3256 6.4186V4.18605C22.3256 2.42233 21.5777 1.67442 19.814 1.67442H17.5814Z" fill="#1A1A1A"/>
<path d="M6.4186 23.9997H4.18605C1.48465 23.9997 0 22.515 0 19.8136V17.5811C0 14.8797 1.48465 13.395 4.18605 13.395H6.4186C9.12 13.395 10.6047 14.8797 10.6047 17.5811V19.8136C10.6047 22.515 9.12 23.9997 6.4186 23.9997ZM4.18605 15.0694C2.42233 15.0694 1.67442 15.8173 1.67442 17.5811V19.8136C1.67442 21.5773 2.42233 22.3253 4.18605 22.3253H6.4186C8.18233 22.3253 8.93023 21.5773 8.93023 19.8136V17.5811C8.93023 15.8173 8.18233 15.0694 6.4186 15.0694H4.18605Z" fill="#1A1A1A"/>
<path d="M5.30233 10.6047C2.37767 10.6047 0 8.22698 0 5.30233C0 2.37767 2.37767 0 5.30233 0C8.22698 0 10.6047 2.37767 10.6047 5.30233C10.6047 8.22698 8.22698 10.6047 5.30233 10.6047ZM5.30233 1.67442C3.30419 1.67442 1.67442 3.30419 1.67442 5.30233C1.67442 7.30046 3.30419 8.93023 5.30233 8.93023C7.30046 8.93023 8.93023 7.30046 8.93023 5.30233C8.93023 3.30419 7.30046 1.67442 5.30233 1.67442Z" fill="#1A1A1A"/>
<path d="M18.6977 23.9997C15.773 23.9997 13.3954 21.622 13.3954 18.6973C13.3954 15.7727 15.773 13.395 18.6977 13.395C21.6223 13.395 24 15.7727 24 18.6973C24 21.622 21.6223 23.9997 18.6977 23.9997ZM18.6977 15.0694C16.6995 15.0694 15.0698 16.6992 15.0698 18.6973C15.0698 20.6955 16.6995 22.3253 18.6977 22.3253C20.6958 22.3253 22.3256 20.6955 22.3256 18.6973C22.3256 16.6992 20.6958 15.0694 18.6977 15.0694Z" fill="#1A1A1A"/>
</svg>
