<svg width="28" height="30" viewBox="0 0 28 30" fill="none" xmlns="http://www.w3.org/2000/svg">
<path fill-rule="evenodd" clip-rule="evenodd" d="M2.4303 8.99863C1.21236 9.94591 0.5 11.4024 0.5 12.9454V27C0.5 27.7956 0.816071 28.5587 1.37868 29.1213C1.94129 29.6839 2.70435 30 3.5 30H24.5C25.2957 30 26.0587 29.6839 26.6213 29.1213C27.1839 28.5587 27.5 27.7956 27.5 27V12.9454C27.5 11.4024 26.7876 9.94591 25.5697 8.99863L15.2279 0.954988C14.5057 0.39326 13.4943 0.393259 12.7721 0.954986L2.4303 8.99863ZM21.5 12.9142C21.5 11.3551 19.615 10.5743 18.5126 11.6767L13.4375 16.7518L8.92494 12.2392C7.82249 11.1368 5.9375 11.9176 5.9375 13.4767V22.1483C5.9375 23.7073 7.8225 24.4881 8.92494 23.3857L13.4375 18.8731L18.5126 23.9482C19.615 25.0506 21.5 24.2698 21.5 22.7108V12.9142ZM19.5732 22.8875L14.4982 17.8125L19.5732 12.7374C19.7307 12.5799 20 12.6915 20 12.9142V22.7108C20 22.9335 19.7307 23.045 19.5732 22.8875ZM7.86427 13.2999L12.3768 17.8125L7.86428 22.325C7.70679 22.4825 7.4375 22.371 7.4375 22.1483V13.4767C7.4375 13.254 7.70679 13.1424 7.86427 13.2999Z" fill="#1A90E3"/>
</svg>
