<svg width="36" height="36" viewBox="0 0 36 36" fill="none" xmlns="http://www.w3.org/2000/svg">
<path d="M4.5 15.9454C4.5 14.4025 5.21236 12.9459 6.4303 11.9987L16.7721 3.95502C17.4943 3.39329 18.5057 3.39329 19.2279 3.95502L29.5697 11.9987C30.7876 12.9459 31.5 14.4025 31.5 15.9454V30C31.5 30.7956 31.1839 31.5587 30.6213 32.1213C30.0587 32.6839 29.2957 33 28.5 33H7.5C6.70435 33 5.94129 32.6839 5.37868 32.1213C4.81607 31.5587 4.5 30.7956 4.5 30V15.9454Z" stroke="#1098F7" stroke-width="2" stroke-linecap="round" stroke-linejoin="round"/>
<path d="M17.7188 20.5312L12.3946 25.8554C11.7646 26.4854 10.6875 26.0392 10.6875 25.1483V16.4767C10.6875 15.5858 11.7646 15.1396 12.3946 15.7696L23.0429 26.4179C23.6729 27.0479 24.75 26.6017 24.75 25.7108V15.9142C24.75 15.0233 23.6729 14.5771 23.0429 15.2071L17.7188 20.5312Z" stroke="#1098F7"/>
</svg>
