<svg width="20" height="20" viewBox="0 0 20 20" fill="none" xmlns="http://www.w3.org/2000/svg">
<path fill-rule="evenodd" clip-rule="evenodd" d="M10 0C4.47717 0 0 4.47711 0 10C0 15.5228 4.47717 20 10 20C15.5229 20 20 15.5228 20 10C20 4.47711 15.5229 0 10 0ZM10 18C5.58881 18 2 14.4112 2 10C2 5.58881 5.58881 2 10 2C14.4113 2 18 5.58881 18 10C18 14.4112 14.4113 18 10 18ZM11.2522 6C11.2522 6.72504 10.7243 7.25 10.0102 7.25C9.26713 7.25 8.75219 6.72504 8.75219 5.98613C8.75219 5.27595 9.28107 4.75 10.0102 4.75C10.7243 4.75 11.2522 5.27595 11.2522 6ZM9.00219 9H11.0022V15H9.00219V9Z" fill="#1A90E3"/>
</svg>
