<svg width="17" height="22" viewBox="0 0 17 22" fill="none" xmlns="http://www.w3.org/2000/svg">
<path d="M12.5385 10.2308C12.5385 11.2508 12.1333 12.2291 11.412 12.9504C10.6907 13.6717 9.71241 14.0769 8.69235 14.0769C7.67228 14.0769 6.694 13.6717 5.9727 12.9504C5.25141 12.2291 4.84619 11.2508 4.84619 10.2308V4.84615C4.84619 3.82609 5.25141 2.84781 5.9727 2.12651C6.694 1.40522 7.67228 1 8.69235 1C9.71241 1 10.6907 1.40522 11.412 2.12651C12.1333 2.84781 12.5385 3.82609 12.5385 4.84615V10.2308Z" stroke="black" stroke-linecap="round" stroke-linejoin="round"/>
<path d="M16.3846 11C16.3863 11.9096 16.2083 12.8106 15.8609 13.6513C15.5136 14.4919 15.0037 15.2558 14.3605 15.899C13.7173 16.5422 12.9535 17.052 12.1128 17.3994C11.2721 17.7467 10.3712 17.9247 9.46156 17.9231H7.92309C7.01337 17.9251 6.11221 17.7474 5.27135 17.4002C4.43049 17.053 3.66649 16.5431 3.02322 15.8999C2.37995 15.2566 1.87007 14.4926 1.52287 13.6517C1.17568 12.8109 0.997989 11.9097 1.00002 11" stroke="black" stroke-linecap="round" stroke-linejoin="round"/>
<path d="M8.69214 17.9233V21.0003" stroke="black" stroke-linecap="round" stroke-linejoin="round"/>
</svg>
