<svg width="20" height="22" viewBox="0 0 20 22" fill="none" xmlns="http://www.w3.org/2000/svg">
<path d="M16.0026 7.00106C16.0026 5.40948 15.3704 3.88309 14.245 2.75767C13.1196 1.63225 11.5932 1 10.0016 1C8.41001 1 6.88361 1.63225 5.7582 2.75767C4.63278 3.88309 4.00053 5.40948 4.00053 7.00106C4.00053 14.0023 1 16.0026 1 16.0026H19.0032C19.0032 16.0026 16.0026 14.0023 16.0026 7.00106Z" stroke="#1A90E3" stroke-width="2" stroke-linecap="round" stroke-linejoin="round"/>
<path d="M11.7316 20.0029C11.5558 20.3061 11.3034 20.5577 10.9997 20.7326C10.696 20.9075 10.3517 20.9996 10.0013 20.9996C9.65086 20.9996 9.30657 20.9075 9.0029 20.7326C8.69923 20.5577 8.44684 20.3061 8.271 20.0029" stroke="#1A90E3" stroke-width="2" stroke-linecap="round" stroke-linejoin="round"/>
</svg>
