<svg width="22" height="22" viewBox="0 0 22 22" fill="none" xmlns="http://www.w3.org/2000/svg">
<path d="M17.6667 7.00106C17.6667 5.40948 16.9643 3.88309 15.714 2.75767C14.4638 1.63225 12.7681 1 11 1C9.23189 1 7.5362 1.63225 6.28596 2.75767C5.03571 3.88309 4.33333 5.40948 4.33333 7.00106C4.33333 14.0023 1 16.0026 1 16.0026H21C21 16.0026 17.6667 14.0023 17.6667 7.00106Z" stroke="black" stroke-width="1.5" stroke-linecap="round" stroke-linejoin="round"/>
<path d="M12.9223 20.0034C12.727 20.3065 12.4466 20.5582 12.1092 20.7331C11.7719 20.908 11.3894 21 11.0001 21C10.6108 21 10.2283 20.908 9.89096 20.7331C9.55361 20.5582 9.27323 20.3065 9.07788 20.0034" stroke="black" stroke-width="1.5" stroke-linecap="round" stroke-linejoin="round"/>
</svg>
