<svg width="30" height="20" viewBox="0 0 30 20" fill="none" xmlns="http://www.w3.org/2000/svg">
<path d="M14.8683 2.1417C14.2515 0.871081 12.7997 0 11.2388 0C10.7672 0 10.2585 0.0731704 9.82298 0.21835C7.46409 1.12544 6.99255 2.93961 7.02855 5.62602M14.8683 2.1417L2.50024 16.0198M14.8683 2.1417C15.7034 3.84785 15.3038 8.31243 14.4327 9.94541L14.8683 2.1417ZM7.02855 5.62602C7.06572 7.29501 7.39208 8.85598 7.68244 9.4007M7.02855 5.62602L7.77837 5.60932C7.77839 5.61043 7.77842 5.61154 7.77844 5.61265M7.02855 5.62602L7.77849 5.61597C7.77847 5.61486 7.77846 5.61375 7.77844 5.61265M7.68244 9.4007C9.02507 11.6876 8.87989 12.4495 7.68244 12.7038C6.81136 12.8862 3.65341 14.41 2.09243 15.3902L2.49129 16.0254C2.49427 16.0235 2.49725 16.0217 2.50024 16.0198M7.68244 9.4007L8.32921 9.02098C8.33232 9.02627 8.33542 9.03156 8.33852 9.03684M7.68244 9.4007L8.34429 9.0479C8.34239 9.04434 8.34046 9.04065 8.33852 9.03684M2.50024 16.0198C1.6689 16.5773 1.07081 17.4474 0.845514 18.1825C0.731553 18.5543 0.734846 18.8188 0.776864 18.9641C0.804022 19.058 0.838242 19.0978 0.924302 19.1247C0.93139 19.1256 0.941816 19.1268 0.956115 19.1282C1.00348 19.133 1.07182 19.1383 1.1633 19.1437C1.34541 19.1545 1.59646 19.1646 1.90979 19.1739C2.53516 19.1924 3.38838 19.2071 4.39182 19.2184C6.39761 19.241 8.98965 19.25 11.5291 19.25C13.7598 19.25 15.971 19.241 17.7098 19.2229C19.4605 19.2047 20.6764 19.1772 20.9883 19.1458C21.2068 19.1176 21.3564 19.0977 21.4663 19.0788C21.4714 19.0257 21.4761 18.9684 21.4818 18.8996C21.484 18.8723 21.4864 18.8432 21.4891 18.8118L21.4902 18.798L21.4904 18.7981C21.5977 17.7511 20.9881 16.6272 19.6928 15.8997C18.5642 15.2724 17.4087 14.6811 16.4485 14.2255C15.4603 13.7566 14.7475 13.4649 14.4695 13.3955L14.4694 13.3955C14.1405 13.3133 13.7943 13.1906 13.5135 12.9688C13.2003 12.7212 13.0059 12.3795 12.965 11.9657C12.9282 11.5934 13.0206 11.2122 13.1571 10.8478C13.2961 10.4771 13.5067 10.0576 13.7753 9.58426C14.1328 8.90766 14.4401 7.51776 14.542 6.02006C14.5921 5.28502 14.5901 4.5582 14.5285 3.9236C14.4656 3.27556 14.3457 2.78003 14.1946 2.47141L14.1936 2.46919C13.7145 1.48226 12.5417 0.75 11.2388 0.75C10.8428 0.75 10.4222 0.811562 10.0758 0.924687C9.06908 1.31547 8.52713 1.86504 8.21105 2.56398C7.87364 3.31007 7.76101 4.29647 7.77844 5.61265M2.50024 16.0198C3.24762 15.5513 4.39468 14.9418 5.4714 14.4236C6.00965 14.1646 6.52178 13.9325 6.9485 13.7554C7.39288 13.571 7.69491 13.4675 7.83611 13.4379L7.83828 13.4375C8.19328 13.3621 8.5732 13.2302 8.8743 12.9629C9.20521 12.6692 9.36892 12.2771 9.38449 11.8412C9.39886 11.4389 9.28816 11.0101 9.115 10.5708C8.94016 10.1272 8.67946 9.61872 8.33852 9.03684M7.77844 5.61265C7.79628 6.40484 7.88281 7.17133 7.99821 7.79944C8.11583 8.43967 8.25071 8.86484 8.33852 9.03684M0.948041 19.1315L0.944319 19.1305C0.945533 19.1308 0.946774 19.1311 0.948041 19.1315ZM21.1458 13.2456C20.2285 12.7281 19.2067 12.1962 18.25 11.7346C18.3602 11.6932 18.437 11.6687 18.4818 11.6587L18.4819 11.6587L18.4933 11.656C18.763 11.5911 19.0798 11.4826 19.3372 11.2574C19.6291 11.002 19.775 10.6595 19.7885 10.2819C19.8007 9.94284 19.7067 9.59133 19.5735 9.24717C19.4367 8.89369 19.2339 8.48677 18.9722 8.01923L18.9723 8.01917L18.9654 8.00737C18.9025 7.89975 18.7855 7.58219 18.68 7.07195C18.5798 6.58774 18.5038 5.99787 18.4869 5.39211C18.4699 4.38401 18.5793 3.63374 18.8449 3.07768C19.0916 2.56148 19.5 2.15551 20.2291 1.87335C20.5341 1.78397 20.848 1.73142 21.1133 1.73142C22.0584 1.73142 22.8938 2.2498 23.2268 2.9659C23.3289 3.18883 23.4158 3.56011 23.4619 4.06133C23.5069 4.55056 23.5088 5.11288 23.4722 5.68386C23.3975 6.84808 23.1721 7.91666 22.9164 8.43789C22.7133 8.80795 22.5501 9.14063 22.4411 9.43709C22.3341 9.72803 22.2535 10.051 22.2859 10.3752C22.3228 10.7434 22.499 11.0497 22.7806 11.2673C23.0264 11.4572 23.3215 11.5558 23.5832 11.6191C23.7852 11.6703 24.3198 11.8945 25.0942 12.2725C25.8421 12.6374 26.7459 13.1115 27.6423 13.6137L27.7004 13.5368L27.6559 13.6206C28.5994 14.1216 29.041 14.9823 28.9675 15.715L28.9659 15.7317L28.9649 15.7485C28.9637 15.7711 28.9625 15.792 28.9614 15.8115C28.8925 15.8217 28.8115 15.8324 28.7134 15.8447L28.6979 15.8466L28.6825 15.8492C28.5337 15.8742 27.9238 15.9023 26.9324 15.921C26.0909 15.9369 25.0303 15.9458 23.8738 15.9476C23.2972 14.8496 22.3562 13.8884 21.1458 13.2456Z" stroke="#1A90E3" stroke-width="1.5"/>
</svg>
