<svg width="19" height="20" viewBox="0 0 19 20" fill="none" xmlns="http://www.w3.org/2000/svg">
<path d="M18.0714 11.4276V11.4284C18.0711 11.9596 17.9586 12.4848 17.7413 12.9695C17.5239 13.4543 17.2066 13.8876 16.8101 14.2412L16.6428 14.3903V14.6144V19.2104L14.4996 18.1963L14.2857 18.0951L14.0719 18.1963L11.9286 19.2104V14.6144V14.3908L11.7619 14.2417C11.291 13.8205 10.933 13.2881 10.7205 12.6931C10.508 12.0981 10.4478 11.4594 10.5454 10.8352C10.643 10.2109 10.8953 9.62108 11.2793 9.11933C11.6633 8.61758 12.1667 8.21991 12.7437 7.96256C13.3207 7.70521 13.953 7.59637 14.5828 7.64596C15.2127 7.69554 15.8201 7.90198 16.3497 8.24645C16.8794 8.59092 17.3144 9.06247 17.6151 9.61811C17.9158 10.1738 18.0727 10.7958 18.0714 11.4276ZM15.5004 18.1949L16.2143 18.5328V17.7429V15.4644V14.7522L15.5444 14.9941C14.731 15.2879 13.8404 15.2879 13.027 14.9941L12.3571 14.7522V15.4644V17.7429V18.5328L13.0711 18.1949L14.2857 17.6199L15.5004 18.1949ZM14.2857 14.7858L14.2863 14.7858C15.1762 14.7848 16.0294 14.4308 16.6586 13.8016C17.2879 13.1723 17.6418 12.3191 17.6428 11.4292V11.4287C17.6428 10.7647 17.446 10.1156 17.0771 9.56352C16.7082 9.01145 16.1839 8.58115 15.5704 8.32706C14.957 8.07296 14.282 8.00648 13.6308 8.13602C12.9795 8.26555 12.3814 8.58529 11.9118 9.05479C11.4423 9.5243 11.1226 10.1225 10.9931 10.7737C10.8635 11.4249 10.93 12.0999 11.1841 12.7134C11.4382 13.3268 11.8685 13.8511 12.4206 14.22C12.9727 14.5889 13.6217 14.7858 14.2857 14.7858Z" stroke="#1A90E3"/>
<path d="M13.7857 1.4291V3.78571H13.3571V1.42857V0.928571H12.8571H1.42857H0.928571V1.42857V18.5714V19.0714H1.42857H8.07143V19.5H1.4291C1.18276 19.4997 0.946594 19.4018 0.772412 19.2276L0.422225 19.5778L0.77241 19.2276C0.598282 19.0535 0.500319 18.8174 0.5 18.5711V1.42887C0.500319 1.18262 0.598282 0.94654 0.772411 0.772411C0.94654 0.598282 1.18262 0.500319 1.42887 0.5H12.8568C13.1031 0.500319 13.3392 0.598281 13.5133 0.772411C13.6875 0.946595 13.7855 1.18276 13.7857 1.4291Z" stroke="#1A90E3"/>
<path d="M8.57129 8.57129H3.57129V9.99986H8.57129V8.57129Z" fill="#1A90E3"/>
<path d="M10.7141 4.28613H3.57129V5.7147H10.7141V4.28613Z" fill="#1A90E3"/>
</svg>
