<svg width="20" height="20" viewBox="0 0 20 20" fill="none" xmlns="http://www.w3.org/2000/svg">
<mask id="path-1-inside-1_231_1388" fill="white">
<path fill-rule="evenodd" clip-rule="evenodd" d="M9.98564 0C13.7311 0 16.8509 3.11978 16.8509 6.86379C16.8509 8.08656 16.4309 9.29219 15.8438 10.3835C15.2538 11.4806 14.4739 12.5034 13.6997 13.3748C13.0247 14.1328 12.2987 14.8439 11.527 15.5032C11.2749 15.7192 11.0147 15.9255 10.747 16.1217C10.6567 16.1873 10.5638 16.2493 10.4685 16.3074C10.3894 16.3544 10.3062 16.3941 10.2199 16.426C10.0289 16.4877 9.82126 16.4723 9.64138 16.3831C9.5934 16.3604 9.54667 16.3351 9.50139 16.3074C9.40551 16.2479 9.31211 16.1845 9.22141 16.1174C8.9541 15.9203 8.6944 15.713 8.44289 15.496C7.67196 14.8333 6.94656 14.1193 6.27162 13.359C5.49739 12.4848 4.71744 11.4592 4.12891 10.3664C3.54181 9.27791 3.12041 8.07656 3.12041 6.86379C3.12041 3.11978 6.24019 0 9.98564 0ZM9.98564 8.91365C9.44198 8.91365 8.92059 8.69768 8.53617 8.31326C8.15175 7.92884 7.93578 7.40745 7.93578 6.86379C7.93578 6.32014 8.15175 5.79875 8.53617 5.41433C8.92059 5.02991 9.44198 4.81394 9.98564 4.81394C10.5293 4.81394 11.0507 5.02991 11.4351 5.41433C11.8195 5.79875 12.0355 6.32014 12.0355 6.86379C12.0355 7.40745 11.8195 7.92884 11.4351 8.31326C11.0507 8.69768 10.5293 8.91365 9.98564 8.91365ZM14.4139 14.5075C14.6767 14.2118 14.9396 13.9019 15.1995 13.579H17.118C17.4037 13.579 17.6608 13.7504 17.7751 14.0119L19.9135 19.0044C19.9601 19.113 19.979 19.2316 19.9684 19.3494C19.9579 19.4672 19.9183 19.5805 19.8532 19.6792C19.788 19.7779 19.6994 19.8589 19.5952 19.9149C19.4911 19.9708 19.3747 20.0001 19.2564 20H0.71487C0.596618 20.0001 0.48019 19.9708 0.376034 19.9149C0.271879 19.8589 0.183257 19.7779 0.11812 19.6792C0.0529835 19.5805 0.0133714 19.4672 0.00283889 19.3494C-0.00769366 19.2316 0.0111829 19.113 0.0577744 19.0044L2.19762 14.0119C2.25273 13.8833 2.34438 13.7737 2.46119 13.6968C2.57801 13.6199 2.71484 13.5789 2.85472 13.579H4.79029C5.04313 13.8933 5.30026 14.1976 5.55738 14.4875C6.50303 15.5532 7.45725 16.4531 8.20005 17.0888C8.57145 17.4073 8.89571 17.663 9.14427 17.843C9.26712 17.933 9.37997 18.0087 9.47567 18.0673C9.55881 18.1233 9.64979 18.1666 9.74565 18.1958C9.94074 18.26 10.1532 18.2446 10.337 18.153C10.3942 18.1273 10.447 18.0958 10.4942 18.0687C10.6072 17.9995 10.7173 17.9257 10.8241 17.8473C11.0727 17.6673 11.3955 17.413 11.7684 17.0973C12.5112 16.466 13.4682 15.5703 14.4125 14.5075H14.4139Z"/>
</mask>
<path d="M15.8438 10.3835L14.5228 9.67291L14.5227 9.67311L15.8438 10.3835ZM13.6997 13.3748L14.8199 14.3723L14.821 14.3711L13.6997 13.3748ZM11.527 15.5032L10.5527 14.3626L10.5509 14.3642L11.527 15.5032ZM10.747 16.1217L11.6289 17.3351L11.6337 17.3316L10.747 16.1217ZM10.4685 16.3074L11.2347 17.5969L11.242 17.5926L11.2493 17.5881L10.4685 16.3074ZM10.2199 16.426L10.6808 17.8534L10.7106 17.8438L10.7399 17.8329L10.2199 16.426ZM9.64138 16.3831L10.3076 15.0392L10.2958 15.0333L10.2839 15.0277L9.64138 16.3831ZM9.50139 16.3074L8.71045 17.582L8.71877 17.5871L9.50139 16.3074ZM9.22141 16.1174L10.1136 14.9116L10.1118 14.9102L9.22141 16.1174ZM8.44289 15.496L9.42264 14.3602L9.42074 14.3586L8.44289 15.496ZM6.27162 13.359L5.14868 14.3535L5.14987 14.3549L6.27162 13.359ZM4.12891 10.3664L5.44956 9.65515L5.44912 9.65432L4.12891 10.3664ZM9.98564 8.91365V7.41365V8.91365ZM9.98564 4.81394V3.31394V4.81394ZM14.4139 14.5075V16.0075H15.0875L15.535 15.5041L14.4139 14.5075ZM15.1995 13.579V12.079H14.4816L14.0313 12.6382L15.1995 13.579ZM17.7751 14.0119L19.154 13.4212L19.1495 13.411L17.7751 14.0119ZM19.9135 19.0044L18.5347 19.5949L18.5348 19.5954L19.9135 19.0044ZM19.2564 20L19.2577 18.5H19.2564V20ZM0.71487 20V18.5L0.713536 18.5L0.71487 20ZM0.0577744 19.0044L1.43644 19.5954L1.43647 19.5953L0.0577744 19.0044ZM2.19762 14.0119L0.818956 13.4209L0.818924 13.4209L2.19762 14.0119ZM2.85472 13.579L2.85338 15.079H2.85472V13.579ZM4.79029 13.579L5.959 12.6388L5.50868 12.079H4.79029V13.579ZM5.55738 14.4875L4.43505 15.4827L4.43544 15.4831L5.55738 14.4875ZM8.20005 17.0888L9.1766 15.9502L9.17533 15.9491L8.20005 17.0888ZM9.14427 17.843L10.0307 16.6329L10.024 16.6281L9.14427 17.843ZM9.47567 18.0673L10.3134 16.823L10.2864 16.8048L10.2586 16.7878L9.47567 18.0673ZM9.74565 18.1958L10.2141 16.7709L10.1989 16.7659L10.1836 16.7612L9.74565 18.1958ZM10.337 18.153L9.72149 16.7851L9.69454 16.7972L9.66809 16.8104L10.337 18.153ZM10.4942 18.0687L11.2426 19.3686L11.2601 19.3586L11.2774 19.348L10.4942 18.0687ZM10.8241 17.8473L9.94437 16.6324L9.93722 16.6376L10.8241 17.8473ZM11.7684 17.0973L12.7377 18.2421L12.7398 18.2403L11.7684 17.0973ZM14.4125 14.5075V13.0075H13.7386L13.2911 13.5113L14.4125 14.5075ZM9.98564 1.5C12.9029 1.5 15.3509 3.94841 15.3509 6.86379H18.3509C18.3509 2.29115 14.5593 -1.5 9.98564 -1.5V1.5ZM15.3509 6.86379C15.3509 7.75149 15.042 8.70775 14.5228 9.67291L17.1648 11.0942C17.8198 9.87664 18.3509 8.42164 18.3509 6.86379H15.3509ZM14.5227 9.67311C14.0052 10.6355 13.3036 11.5622 12.5783 12.3784L14.821 14.3711C15.6442 13.4446 16.5025 12.3257 17.1649 11.094L14.5227 9.67311ZM12.5794 12.3773C11.9498 13.0844 11.2726 13.7477 10.5527 14.3626L12.5012 16.6437C13.3249 15.9402 14.0996 15.1813 14.8199 14.3723L12.5794 12.3773ZM10.5509 14.3642C10.3277 14.5554 10.0974 14.7381 9.86032 14.9118L11.6337 17.3316C11.9321 17.1129 12.2221 16.8829 12.503 16.6422L10.5509 14.3642ZM9.86511 14.9083C9.80757 14.9502 9.74836 14.9896 9.68763 15.0267L11.2493 17.5881C11.3792 17.5089 11.5058 17.4245 11.6289 17.3351L9.86511 14.9083ZM9.70222 15.0179C9.70148 15.0183 9.70071 15.0187 9.69989 15.019L10.7399 17.8329C10.9117 17.7695 11.0773 17.6905 11.2347 17.5969L9.70222 15.0179ZM9.75901 14.9985C9.94016 14.94 10.137 14.9546 10.3076 15.0392L8.97519 17.7271C9.50551 17.9899 10.1175 18.0353 10.6808 17.8534L9.75901 14.9985ZM10.2839 15.0277L10.284 15.0278L8.71877 17.5871C8.8094 17.6425 8.90291 17.6931 8.99889 17.7386L10.2839 15.0277ZM10.2923 15.0329C10.2311 14.9949 10.1715 14.9544 10.1136 14.9116L8.32922 17.3232C8.45273 17.4146 8.57992 17.5009 8.71047 17.5819L10.2923 15.0329ZM10.1118 14.9102C9.87514 14.7357 9.64527 14.5522 9.42264 14.3602L7.46314 16.6319C7.74353 16.8737 8.03305 17.1048 8.33105 17.3246L10.1118 14.9102ZM9.42074 14.3586C8.7009 13.7397 8.02358 13.0731 7.39336 12.3632L5.14987 14.3549C5.86954 15.1655 6.64302 15.9268 7.46504 16.6335L9.42074 14.3586ZM7.39455 12.3646C6.66882 11.5451 5.96633 10.6147 5.44956 9.65515L2.80826 11.0777C3.46856 12.3037 4.32596 13.4246 5.14868 14.3535L7.39455 12.3646ZM5.44912 9.65432C4.92883 8.6897 4.62041 7.73878 4.62041 6.86379H1.62041C1.62041 8.41435 2.15479 9.86611 2.80871 11.0785L5.44912 9.65432ZM4.62041 6.86379C4.62041 3.94841 7.06841 1.5 9.98564 1.5V-1.5C5.41197 -1.5 1.62041 2.29115 1.62041 6.86379H4.62041ZM9.98564 7.41365C9.83981 7.41365 9.69995 7.35572 9.59683 7.2526L7.47551 9.37392C8.14124 10.0396 9.04416 10.4136 9.98564 10.4136V7.41365ZM9.59683 7.2526C9.49371 7.14948 9.43578 7.00962 9.43578 6.86379H6.43578C6.43578 7.80527 6.80979 8.70819 7.47551 9.37392L9.59683 7.2526ZM9.43578 6.86379C9.43578 6.71797 9.49371 6.57811 9.59683 6.47499L7.47551 4.35367C6.80979 5.0194 6.43578 5.92231 6.43578 6.86379H9.43578ZM9.59683 6.47499C9.69995 6.37187 9.83981 6.31394 9.98564 6.31394V3.31394C9.04416 3.31394 8.14124 3.68794 7.47551 4.35367L9.59683 6.47499ZM9.98564 6.31394C10.1315 6.31394 10.2713 6.37187 10.3744 6.47499L12.4958 4.35367C11.83 3.68794 10.9271 3.31394 9.98564 3.31394V6.31394ZM10.3744 6.47499C10.4776 6.57811 10.5355 6.71797 10.5355 6.86379H13.5355C13.5355 5.92231 13.1615 5.01939 12.4958 4.35367L10.3744 6.47499ZM10.5355 6.86379C10.5355 7.00962 10.4776 7.14948 10.3744 7.2526L12.4958 9.37392C13.1615 8.70819 13.5355 7.80528 13.5355 6.86379H10.5355ZM10.3744 7.2526C10.2713 7.35572 10.1315 7.41365 9.98564 7.41365V10.4136C10.9271 10.4136 11.83 10.0396 12.4958 9.37392L10.3744 7.2526ZM15.535 15.5041C15.8137 15.1905 16.0923 14.862 16.3678 14.5198L14.0313 12.6382C13.7868 12.9418 13.5397 13.2332 13.2928 13.511L15.535 15.5041ZM15.1995 15.079H17.118V12.079H15.1995V15.079ZM17.118 15.079C16.7964 15.079 16.5207 14.8872 16.4007 14.6127L19.1495 13.411C18.8009 12.6137 18.011 12.079 17.118 12.079V15.079ZM16.3962 14.6024L18.5347 19.5949L21.2923 18.4138L19.1539 13.4213L16.3962 14.6024ZM18.5348 19.5954C18.4836 19.4758 18.4628 19.3454 18.4744 19.2158L21.4625 19.483C21.4951 19.1178 21.4366 18.7503 21.2922 18.4134L18.5348 19.5954ZM18.4744 19.2158C18.486 19.0862 18.5296 18.9615 18.6012 18.8529L21.1051 20.5054C21.307 20.1995 21.4298 19.8481 21.4625 19.483L18.4744 19.2158ZM18.6012 18.8529C18.6729 18.7444 18.7704 18.6553 18.885 18.5937L20.3055 21.236C20.6284 21.0624 20.9032 20.8114 21.1051 20.5054L18.6012 18.8529ZM18.885 18.5937C18.9995 18.5321 19.1276 18.4999 19.2577 18.5L19.2551 21.5C19.6217 21.5003 19.9826 21.4096 20.3055 21.236L18.885 18.5937ZM19.2564 18.5H0.71487V21.5H19.2564V18.5ZM0.713536 18.5C0.84364 18.4999 0.971727 18.5321 1.08631 18.5937L-0.334237 21.236C-0.0113483 21.4096 0.349596 21.5003 0.716205 21.5L0.713536 18.5ZM1.08631 18.5937C1.20089 18.6553 1.29839 18.7444 1.37005 18.8529L-1.13381 20.5054C-0.931876 20.8114 -0.657132 21.0624 -0.334237 21.236L1.08631 18.5937ZM1.37005 18.8529C1.44171 18.9615 1.48529 19.0862 1.49688 19.2158L-1.4912 19.483C-1.45855 19.8481 -1.33574 20.1994 -1.13381 20.5054L1.37005 18.8529ZM1.49688 19.2158C1.50846 19.3454 1.4877 19.4758 1.43644 19.5954L-1.32089 18.4134C-1.46533 18.7503 -1.52385 19.1178 -1.4912 19.483L1.49688 19.2158ZM1.43647 19.5953L3.57632 14.6028L0.818924 13.4209L-1.32092 18.4134L1.43647 19.5953ZM3.57629 14.6029C3.51566 14.7443 3.41483 14.8648 3.28632 14.9495L1.63607 12.4441C1.27393 12.6827 0.989809 13.0223 0.818956 13.4209L3.57629 14.6029ZM3.28632 14.9495C3.15781 15.0341 3.00727 15.0792 2.85338 15.079L2.85605 12.079C2.42241 12.0786 1.9982 12.2056 1.63607 12.4441L3.28632 14.9495ZM2.85472 15.079H4.79029V12.079H2.85472V15.079ZM3.62159 14.5193C3.88925 14.852 4.16182 15.1746 4.43505 15.4827L6.67971 13.4924C6.43869 13.2205 6.19702 12.9346 5.959 12.6388L3.62159 14.5193ZM4.43544 15.4831C5.4324 16.6066 6.43691 17.5542 7.22477 18.2284L9.17533 15.9491C8.47758 15.352 7.57365 14.4997 6.67933 13.4919L4.43544 15.4831ZM7.2235 18.2274C7.6188 18.5664 7.97568 18.8488 8.2645 19.0579L10.024 16.6281C9.81575 16.4773 9.52411 16.2483 9.1766 15.9502L7.2235 18.2274ZM8.25783 19.0531C8.40881 19.1637 8.5563 19.2632 8.69273 19.3467L10.2586 16.7878C10.2036 16.7542 10.1254 16.7023 10.0307 16.633L8.25783 19.0531ZM8.63791 19.3115C8.84417 19.4504 9.06991 19.5579 9.30775 19.6305L10.1836 16.7612C10.2297 16.7753 10.2734 16.7961 10.3134 16.823L8.63791 19.3115ZM9.27725 19.6208C9.84752 19.8083 10.4687 19.7633 11.006 19.4956L9.66809 16.8104C9.83777 16.7259 10.034 16.7117 10.2141 16.7709L9.27725 19.6208ZM10.9526 19.5209C11.0941 19.4572 11.2229 19.38 11.2426 19.3686L9.74573 16.7688C9.73848 16.7729 9.73109 16.7772 9.72566 16.7804C9.71971 16.7838 9.7151 16.7865 9.71081 16.7889C9.70222 16.7939 9.69781 16.7963 9.69545 16.7976C9.69325 16.7988 9.69464 16.798 9.6987 16.796C9.70279 16.7939 9.71058 16.79 9.72149 16.7851L10.9526 19.5209ZM11.2774 19.348C11.4259 19.2571 11.5706 19.16 11.7111 19.057L9.93722 16.6376C9.86395 16.6913 9.78848 16.742 9.71099 16.7894L11.2774 19.348ZM11.7039 19.0622C11.9915 18.854 12.3449 18.5746 12.7377 18.2421L10.7991 15.9526C10.4461 16.2514 10.1539 16.4806 9.94438 16.6324L11.7039 19.0622ZM12.7398 18.2403C13.5274 17.5708 14.5362 16.6266 15.5338 15.5038L13.2911 13.5113C12.4002 14.514 11.4949 15.3611 10.7969 15.9544L12.7398 18.2403ZM14.4125 16.0075H14.4139V13.0075H14.4125V16.0075Z" fill="#1A90E3" mask="url(#path-1-inside-1_231_1388)"/>
</svg>
