<svg width="24" height="24" viewBox="0 0 24 24" fill="none" xmlns="http://www.w3.org/2000/svg">
<path d="M14.6604 23.9998H8.63254C3.11818 23.9998 0.774017 21.6444 0.774017 16.1412V11.1292C0.774017 10.6715 1.15355 10.292 1.61122 10.292C2.06889 10.292 2.44842 10.6715 2.44842 11.1292V16.1412C2.44842 20.7068 4.06701 22.3254 8.63254 22.3254H14.6493C19.2148 22.3254 20.8334 20.7068 20.8334 16.1412V11.1292C20.8334 10.6715 21.2129 10.292 21.6706 10.292C22.1283 10.292 22.5078 10.6715 22.5078 11.1292V16.1412C22.5189 21.6444 20.1636 23.9998 14.6604 23.9998Z" fill="#1A1A1A"/>
<path d="M11.6455 12.8371C10.4176 12.8371 9.30138 12.3571 8.50883 11.4752C7.71628 10.5934 7.34791 9.44363 7.4707 8.21573L8.21861 0.759062C8.26326 0.33488 8.62046 0 9.05581 0H14.2687C14.7041 0 15.0613 0.323718 15.1059 0.759062L15.8538 8.21573C15.9766 9.44363 15.6083 10.5934 14.8157 11.4752C13.9897 12.3571 12.8734 12.8371 11.6455 12.8371ZM9.80367 1.6744L9.13393 8.38317C9.0558 9.13107 9.27906 9.83432 9.74786 10.3478C10.6967 11.3971 12.5943 11.3971 13.5432 10.3478C14.012 9.82316 14.2353 9.11991 14.1571 8.38317L13.4874 1.6744H9.80367Z" fill="#1A1A1A"/>
<path d="M18.6904 12.8371C16.4243 12.8371 14.4039 11.0064 14.1695 8.75154L13.3881 0.926502C13.3658 0.692086 13.4439 0.45767 13.6002 0.279067C13.7565 0.100464 13.9797 0 14.2253 0H17.6299C20.9117 0 22.441 1.37301 22.8987 4.74414L23.2112 7.84736C23.3452 9.16456 22.9433 10.4148 22.0838 11.3636C21.2243 12.3124 20.0187 12.8371 18.6904 12.8371ZM15.1518 1.6744L15.8439 8.5841C15.989 9.97943 17.2839 11.1627 18.6904 11.1627C19.5387 11.1627 20.2978 10.839 20.8448 10.2473C21.3806 9.65572 21.6261 8.86317 21.548 8.0148L21.2355 4.94507C20.8894 2.4223 20.0745 1.6744 17.6299 1.6744H15.1518Z" fill="#1A1A1A"/>
<path d="M4.54616 12.8371C3.2178 12.8371 2.01223 12.3124 1.1527 11.3636C0.293175 10.4148 -0.108681 9.16456 0.0252708 7.84736L0.326663 4.77763C0.795496 1.37301 2.32478 0 5.60662 0H9.01123C9.24564 0 9.46885 0.100464 9.63629 0.279067C9.80373 0.45767 9.87071 0.692086 9.84838 0.926502L9.06704 8.75154C8.83262 11.0064 6.81218 12.8371 4.54616 12.8371ZM5.60662 1.6744C3.16198 1.6744 2.34711 2.41114 1.9899 4.96739L1.68851 8.0148C1.59921 8.86317 1.85595 9.65572 2.39176 10.2473C2.92757 10.839 3.68663 11.1627 4.54616 11.1627C5.95265 11.1627 7.25869 9.97943 7.39264 8.5841L8.08474 1.6744H5.60662Z" fill="#1A1A1A"/>
<path d="M14.4374 23.9999H8.85606C8.39839 23.9999 8.01886 23.6204 8.01886 23.1627V20.372C8.01886 18.0278 9.30257 16.7441 11.6467 16.7441C13.9909 16.7441 15.2746 18.0278 15.2746 20.372V23.1627C15.2746 23.6204 14.8951 23.9999 14.4374 23.9999ZM9.69326 22.3255H13.6002V20.372C13.6002 18.9655 13.0532 18.4185 11.6467 18.4185C10.2402 18.4185 9.69326 18.9655 9.69326 20.372V22.3255Z" fill="#1A1A1A"/>
</svg>
