<svg width="25" height="26" viewBox="0 0 25 26" fill="none" xmlns="http://www.w3.org/2000/svg">
<path fill-rule="evenodd" clip-rule="evenodd" d="M3.68271 14.0461C2.74257 14.0461 1.85163 13.8359 1.06055 13.4382V18.1766C1.06055 23.6199 2.90123 25.712 8.02345 25.8936V23.4648C8.02345 20.5346 9.62809 18.9299 12.5583 18.9299C15.4885 18.9299 17.0931 20.5346 17.0931 23.4648V25.8931C22.2045 25.7081 24.0418 23.6149 24.0418 18.1766V13.4093C23.2366 13.8257 22.3256 14.0461 21.3629 14.0461C19.6131 14.0461 17.9805 13.1729 16.9189 11.8409C16.7973 12.0151 16.6641 12.183 16.5196 12.3438C15.487 13.4461 14.0917 14.0461 12.5568 14.0461C11.0219 14.0461 9.62664 13.4461 8.63595 12.3438C8.47089 12.1602 8.32055 11.9672 8.18531 11.766C7.1258 13.1401 5.46502 14.0461 3.68271 14.0461ZM5.00829 0.0927734C1.9525 0.0927734 0.933902 1.01369 0.487395 4.20901L0.110654 8.01828C-0.000972629 9.07873 0.319954 10.0694 0.989715 10.8089C1.65948 11.5485 2.6083 11.9531 3.68271 11.9531C5.44083 11.9531 7.07338 10.4741 7.24082 8.7299L8.10594 0.0927734H5.00829ZM14.8284 0.0927734L15.7118 8.9392L15.7134 8.9549C15.6875 9.69894 15.4129 10.3929 14.9289 10.9345C13.7428 12.2461 11.3708 12.2461 10.1847 10.9345C9.59874 10.2927 9.31966 9.41361 9.41734 8.47874L10.2545 0.0927734H14.8284ZM17.8441 8.99725C18.1534 10.6226 19.6954 11.9531 21.3629 11.9531C22.4233 11.9531 23.3722 11.5485 24.0559 10.8089C24.7257 10.0694 25.0326 9.07873 24.935 8.01828L24.5443 4.1811C24.1117 1.02765 23.0931 0.0927734 20.0373 0.0927734H16.9971L17.8172 8.26943C17.8418 8.51486 17.8506 8.75779 17.8441 8.99725ZM15.0001 23.4648V25.9066H10.1165V23.4648C10.1165 21.7067 10.8002 21.0229 12.5583 21.0229C14.3164 21.0229 15.0001 21.7067 15.0001 23.4648Z" fill="#1A90E3"/>
</svg>
